<svg xmlns="http://www.w3.org/2000/svg" xmlns:xlink="http://www.w3.org/1999/xlink" viewBox="0,0,256,256" width="48px" height="48px"><g fill="none" fill-rule="nonzero" stroke="none" stroke-width="1" stroke-linecap="butt" stroke-linejoin="miter" stroke-miterlimit="10" stroke-dasharray="" stroke-dashoffset="0" font-family="none" font-weight="none" font-size="none" text-anchor="none" style="mix-blend-mode: normal"><g transform="scale(5.33333,5.33333)"><path d="M12.5,42h23c3.6,0 6.5,-2.9 6.5,-6.5v-23c0,-3.6 -2.9,-6.5 -6.5,-6.5h-23c-3.6,0 -6.5,2.9 -6.5,6.5v23c0,3.6 2.9,6.5 6.5,6.5z" fill="#fcc419"></path><path d="M21.8,38.3l3.3,-7.3l-3.7,-4h6l3.9,-6.5l1.1,6.5h7l-6.3,4.5l1,6.5l-5.1,-3.9zM29.1,31.7l2.2,1.7l-0.4,-2.9l2.2,-1.5h-2.4l-0.5,-2.8l-1.6,2.8h-2.6l1.5,1.6l-1.2,2.7z" fill="#212121"></path><path d="M23.7,28h4.3l2.8,-4.7l0.8,4.7h4.7l-4.3,3l0.7,4.7l-3.7,-2.8l-4.9,2.9l2.3,-5z" fill="#ffffff"></path><path d="M27.3,27h-5.8l-0.3,-0.6c-0.1,-0.1 -0.3,-0.8 -0.2,-1.9c0.2,-1.8 0,-2.5 -0.2,-2.8c0,-0.1 -0.2,-0.2 -0.7,-0.2h-1.9l-1.1,5.1h-5.4l3.4,-15.6h7.4c1.6,0 3.5,0.2 4.7,1.4c0.8,0.8 1.1,2 1,3.5c-0.1,1.8 -0.9,3.1 -2.3,3.8c0.4,0.6 0.6,1.5 0.5,2.9c-0.2,2.2 0,2.7 0.1,2.8zM23,25h1.3c-0.1,-0.6 -0.1,-1.4 0.1,-2.5c0.2,-1.6 -0.1,-1.7 -0.9,-2.2l-1.7,-1c-0.1,0 -0.2,0 -0.3,0h-4.7l1.2,-5.8h4.2c0.9,0 1.7,0.3 2.2,0.9c0.3,0.4 0.7,1.1 0.4,2.2c-0.1,0.7 -0.4,1.3 -0.9,1.7c0.7,-0.2 2,-0.5 2.2,-2.6c0.1,-0.9 -0.1,-1.6 -0.4,-2c-0.5,-0.5 -1.5,-0.8 -3.2,-0.8h-5.8l-2.5,11.7h1.3l1.1,-5.1h3.5c1,0 1.7,0.3 2.2,0.9c0.7,0.8 1,2.1 0.7,4.3c0,0.2 0,0.2 0,0.3zM19.2,17.3h2.2c0.8,0 1.3,-0.3 1.4,-1c0.1,-0.3 0,-0.5 0,-0.6c-0.1,-0.1 -0.3,-0.2 -0.6,-0.2h-2.6z" fill="#ffffff"></path><path d="M21.8,26.5l-0.1,-0.3c0,-0.1 -0.3,-0.6 -0.1,-1.6c0.2,-1.6 0.1,-2.7 -0.3,-3.1c-0.2,-0.3 -0.6,-0.4 -1.1,-0.4h-2.3l-1.1,5.1h-4.3l3.1,-14.7h7c1.4,0 3.2,0.1 4.3,1.3c0.7,0.7 0.9,1.7 0.8,3.1c-0.2,2.4 -1.6,3.3 -2.6,3.7c0.6,0.6 0.9,1.4 0.8,3c-0.2,2.1 0,2.9 0.2,3.1l0.4,0.7h-4.7zM21.4,17.8c0.6,0 1.7,-0.2 1.9,-1.4c0.1,-0.4 0,-0.8 -0.1,-1c-0.2,-0.2 -0.6,-0.4 -1,-0.4h-3l-0.6,2.8z" fill="#212121"></path><path d="M22.5,12c2.8,0 4.9,0.7 4.6,3.8c-0.3,3.2 -2.7,3.4 -3.2,3.6c1,0.6 1.6,1 1.4,3.1c-0.2,2.3 0,3.1 0.2,3.4h-3.5c0,0 -0.2,-0.5 -0.1,-1.4c0.3,-2.7 0,-4.1 -1.9,-4.1c-1.9,0 -2.7,0 -2.7,0l-1.1,5.1h-3.2l2.9,-13.5c0,0 3.3,0 6.6,0M17.9,18.3c0,0 2.3,0 3.5,0c1,0 2.1,-0.5 2.4,-1.8c0.3,-1.4 -0.6,-1.9 -1.6,-1.9c-0.3,0 -3.4,0 -3.4,0l-0.9,3.7M22.5,11h-7.4l-0.2,0.8l-2.9,13.7l-0.3,1.2h5.4l0.2,-0.8l0.9,-4.3h1.9c0.5,0 0.7,0.2 0.7,0.2c0.2,0.2 0.4,0.9 0.2,2.8c-0.1,1.1 0.1,1.8 0.2,1.9l0.3,0.6h5.8l-0.9,-1.5c-0.1,-0.1 -0.3,-0.7 -0.1,-2.8c0.1,-1.4 -0.1,-2.3 -0.5,-2.9c1.4,-0.8 2.1,-2 2.3,-3.8c0.1,-1.5 -0.2,-2.7 -1,-3.5c-1.1,-1.4 -3.1,-1.6 -4.6,-1.6zM19.5,15.6h2.6c0.4,0 0.6,0.1 0.6,0.2c0.1,0.1 0.1,0.3 0,0.6c-0.1,0.7 -0.6,1 -1.4,1h-2.2z" fill="#ffffff"></path></g></g></svg>